<svg viewBox="0 0 104 88" xmlns="http://www.w3.org/2000/svg">
<path fill-rule="evenodd" clip-rule="evenodd" d="M13.4554 11.8762C10.2256 14.8753 8.0625 19.7415 8.0625 27.375V60.625C8.0625 68.2582 10.2256 73.1246 13.4554 76.1238C16.7329 79.1671 21.6711 80.8125 28.25 80.8125H75.75C82.3287 80.8125 87.2668 79.1671 90.5448 76.1238C93.7743 73.1246 95.9375 68.2582 95.9375 60.625V27.375C95.9375 19.7415 93.7743 14.8753 90.5448 11.8762C87.2668 8.83276 82.3287 7.1875 75.75 7.1875H28.25C21.6711 7.1875 16.7329 8.83276 13.4554 11.8762ZM8.60713 6.65502C13.6421 1.97974 20.5789 0.0625 28.25 0.0625H75.75C83.4212 0.0625 90.3581 1.97974 95.3927 6.65502C100.476 11.3747 103.062 18.3835 103.062 27.375V60.625C103.062 69.6167 100.476 76.6254 95.3927 81.345C90.3581 86.0204 83.4212 87.9375 75.75 87.9375H28.25C20.5789 87.9375 13.6421 86.0204 8.60713 81.345C3.52445 76.6254 0.9375 69.6167 0.9375 60.625V27.375C0.9375 18.3835 3.52445 11.3747 8.60713 6.65502Z"/>
<path fill-rule="evenodd" clip-rule="evenodd" d="M86.9757 21.7237C88.1788 23.2806 87.8919 25.5179 86.3354 26.7209L59.9866 47.0808C55.2822 50.7155 48.7173 50.7155 44.0129 47.0808L17.6643 26.7209C16.1074 25.5179 15.8206 23.2806 17.0236 21.7237C18.2266 20.1668 20.4639 19.88 22.0208 21.083L48.3691 41.4426C50.5075 43.0951 53.492 43.0951 55.6299 41.4426L81.9787 21.083C83.5357 19.88 85.773 20.1668 86.9757 21.7237Z"/>
</svg>
