<svg width="102" height="100" viewBox="0 0 102 100" xmlns="http://www.w3.org/2000/svg">
<path fill-rule="evenodd" clip-rule="evenodd" d="M50.8547 0C22.7334 0 0 22.9167 0 51.2677C0 73.9302 14.5661 93.1135 34.773 99.9031C37.2994 100.414 38.2248 98.8 38.2248 97.4427C38.2248 96.2542 38.1416 92.1802 38.1416 87.9354C23.995 90.9917 21.0491 81.824 21.0491 81.824C18.7757 75.8823 15.4071 74.3552 15.4071 74.3552C10.777 71.2146 15.7444 71.2146 15.7444 71.2146C20.8805 71.5542 23.5755 76.4771 23.5755 76.4771C28.1214 84.2854 35.4465 82.0792 38.3935 80.7208C38.814 77.4104 40.1621 75.1187 41.5934 73.8458C30.3105 72.6573 18.4394 68.2437 18.4394 48.551C18.4394 42.949 20.4589 38.3656 23.6588 34.801C23.1539 33.5281 21.3853 28.2646 24.1647 21.2198C24.1647 21.2198 28.4586 19.8615 38.1405 26.4823C42.2857 25.3601 46.5605 24.7892 50.8547 24.7844C55.1487 24.7844 59.5259 25.3792 63.5679 26.4823C73.2508 19.8615 77.5448 21.2198 77.5448 21.2198C80.3241 28.2646 78.5545 33.5281 78.0496 34.801C81.3338 38.3656 83.27 42.949 83.27 48.551C83.27 68.2437 71.399 72.5719 60.0318 73.8458C61.8847 75.4583 63.4836 78.5135 63.4836 83.3521C63.4836 90.2271 63.4003 95.7448 63.4003 97.4417C63.4003 98.8 64.3268 100.414 66.8521 99.9042C87.0591 93.1125 101.625 73.9302 101.625 51.2677C101.708 22.9167 78.8918 0 50.8547 0Z"/>
</svg>
