<svg width="100" height="100" viewBox="0 0 100 100" fill="none" xmlns="http://www.w3.org/2000/svg">
<path d="M23.2774 32.1711H3.20226C2.31129 32.1711 1.58935 32.8933 1.58935 33.784V98.2769C1.58935 99.1678 2.31129 99.8898 3.20226 99.8898H23.2774C24.1684 99.8898 24.8903 99.1678 24.8903 98.2769V33.784C24.8903 32.8933 24.1684 32.1711 23.2774 32.1711Z" fill="black"/>
<path d="M13.2471 0.110107C5.94258 0.110107 0 6.04624 0 13.3427C0 20.6424 5.94258 26.5807 13.2471 26.5807C20.5458 26.5807 26.4835 20.642 26.4835 13.3427C26.4839 6.04624 20.5458 0.110107 13.2471 0.110107Z" fill="black"/>
<path d="M74.34 30.5682C66.2771 30.5682 60.3168 34.0343 56.7016 37.9727V33.784C56.7016 32.8933 55.9797 32.1711 55.0887 32.1711H35.8632C34.9723 32.1711 34.2503 32.8933 34.2503 33.784V98.2769C34.2503 99.1678 34.9723 99.8898 35.8632 99.8898H55.8945C56.7855 99.8898 57.5074 99.1678 57.5074 98.2769V66.3679C57.5074 55.6153 60.4281 51.4262 67.9235 51.4262C76.0868 51.4262 76.7355 58.1417 76.7355 66.9211V98.2772C76.7355 99.1682 77.4574 99.8901 78.3484 99.8901H98.3871C99.2781 99.8901 100 99.1682 100 98.2772V62.9017C100 46.913 96.9513 30.5682 74.34 30.5682Z" fill="black"/>
</svg>
